<svg xmlns="http://www.w3.org/2000/svg" width="28" height="24" fill="none"><path fill="#62B9F9" fill-rule="evenodd" d="M.35 13.77c7.595.443 14.105-5.082 14.56-12.356.013-.216.026-.431.026-.647C6.389.081.527 6.282.356 13.122l-.006.29v.357Z" clip-rule="evenodd"/><mask id="a" width="28" height="24" x="0" y="0" maskUnits="userSpaceOnUse" style="mask-type:alpha"><path fill="#fff" fill-rule="evenodd" d="M.35 23.794h27.11V.715H.35v23.079Z" clip-rule="evenodd"/></mask><g fill-rule="evenodd" clip-rule="evenodd" mask="url(#a)"><path fill="#415AFF" d="M.35 23.794h8.494V15.44H.349v8.354ZM16.858.96c0 .191-.014.383-.027.562a14.722 14.722 0 0 1-2.367 7.126v.063c2.485 0 4.5 1.983 4.5 4.427V23.78h8.495V13.508c0-6.14-4.462-11.41-10.601-12.549Z"/><path fill="#415AFF" d="M18.965 23.794h8.494V15.44h-8.494v8.354Z"/><path fill="#62B9F9" d="M.688 10.586c.81-.14 3.598-1.027 3.598-1.027s2.468-1.317 3.567-3.748a4.107 4.107 0 0 0-.169-3.803 12.726 12.726 0 0 0-6.996 8.578Z"/><path fill="#62B9F9" d="M6.673 7.882C4.041 7.968 1.45 9.045 1.1 9.196a12.433 12.433 0 0 0-.744 3.926l-.006.29v.357c5.005.293 9.54-2.008 12.18-5.693-1.206.175-3.073-.285-5.857-.194Z"/></g></svg>