<svg xmlns="http://www.w3.org/2000/svg" width="77" height="16" fill="none"><g clip-path="url(#a)"><path fill="#191919" fill-rule="evenodd" d="M23.722.034c3.253 0 7.028 2.573 7.028 8.016l-.031.825H19.61c.185 2.54 1.903 4.09 3.99 4.09 1.81 0 3.007-1.121 3.651-2.507l3.303.009c0 .07-.102.808-.471 1.52C28.819 14.533 26.407 16 23.753 16c-4.634 0-7.702-3.629-7.702-7.983 0-4.321 3.1-7.983 7.671-7.983Zm16.141 0c3.253 0 7.028 2.573 7.028 8.016l-.031.825H35.75c.184 2.54 1.903 4.09 3.99 4.09 1.81 0 3.007-1.121 3.651-2.507l3.303.009c0 .07-.102.808-.471 1.52C44.96 14.533 42.548 16 39.894 16c-4.634 0-7.702-3.629-7.702-7.983 0-4.321 3.099-7.983 7.671-7.983ZM68.858 0h.123c1.688.024 3.641.78 4.848 2.48l.007-1.954 3.05.01v9.082h.005s-.006 1.217-.01 2.603h.003v3.621l-.847-.004c-1.33 0-2.304-.757-2.604-1.963-1.253 1.4-3.083 2.112-4.645 2.09-4.111-.057-7.045-3.66-6.991-8.08C61.85 3.496 64.869-.058 68.98 0L68.858 0ZM8.385.08c3.713 0 6.168 2.87 6.168 6.927v8.544h-3.498V7.403c0-2.54-1.258-4.156-3.498-4.156-1.918 0-4 1.712-4 3.852.006.202-.049 8.125-.051 8.442v.01H.008L0 .562l.847.005c1.257 0 2.197.733 2.554 1.822C4.72.988 6.414.08 8.385.08ZM50.19.529l4.204 9.962L58.627.53h3.836l-6.72 14.976h-2.669L46.354.53h3.836Zm19.274 2.645c-2.485-.034-4.107 2.12-4.139 4.76-.032 2.671 1.538 4.837 4.023 4.872 2.424.034 4.045-2.055 4.078-4.76.032-2.671-1.538-4.838-3.962-4.872ZM23.63 2.871c-2.056 0-3.56 1.55-3.805 3.53h7.396c-.215-2.079-1.627-3.53-3.59-3.53Zm16.141 0c-2.056 0-3.56 1.55-3.805 3.53h7.395c-.214-2.079-1.626-3.53-3.59-3.53Z" clip-rule="evenodd"/></g><defs><clipPath id="a"><path fill="#fff" d="M0 0h77v16H0z"/></clipPath></defs></svg>