<svg xmlns="http://www.w3.org/2000/svg" width="1440" height="5" fill="none"><g clip-path="url(#a)"><path fill="#fff" d="M1440 0H0v5h1440V0Z"/><path fill="#FF8952" d="M2071.53 0H0v5h2071.53V0Z"/><mask id="b" width="2138" height="5" x="-24" y="0" maskUnits="userSpaceOnUse" style="mask-type:alpha"><path fill="#fff" d="M2113.46 0H-23.462v5H2113.46V0Z"/></mask><g mask="url(#b)"><path fill="#BBE3D5" fill-rule="evenodd" d="M1011.17-.662h114.26L1096.9 9.963h-85.73V-.662Z" clip-rule="evenodd"/><path fill="#00A773" fill-rule="evenodd" d="m1491.13 11.021 31.53-16.779 105.98-3.125-12.19 23.082-125.32-3.178ZM442.225-3.125H313.119V5h129.106v-8.125Z" clip-rule="evenodd"/><path fill="#F5FF93" d="M958.647 35.625c34.422 0 62.323-11.753 62.323-26.25s-27.901-26.25-62.323-26.25S896.32-5.122 896.32 9.375s27.905 26.25 62.327 26.25ZM1343 35.625c34.42 0 62.32-11.753 62.32-26.25s-27.9-26.25-62.32-26.25c-34.43 0-62.33 11.753-62.33 26.25s27.9 26.25 62.33 26.25Z"/><path fill="#415AFF" fill-rule="evenodd" d="M820.637-.23s21.003 23.144 77.57 9.165c56.567-13.98 56.567-20.696 56.567-20.696L820.637-.23ZM1325.44-2.604s-10.93 27.404-78.15 10.697c-67.22-16.708-56.57-20.697-56.57-20.697l134.72 10Z" clip-rule="evenodd"/><path fill="#BBE3D5" fill-rule="evenodd" d="M215.757-.662h114.265l-28.53 10.625h-85.735V-.662Z" clip-rule="evenodd"/><path fill="#FAABD8" fill-rule="evenodd" d="m727.244-5.758-31.526 16.779 125.325 3.178 12.182-23.082-105.981 3.125Z" clip-rule="evenodd"/><path fill="#F5FF93" d="M163.238 35.625c34.422 0 62.327-11.753 62.327-26.25s-27.905-26.25-62.327-26.25c-34.423 0-62.327 11.753-62.327 26.25s27.904 26.25 62.327 26.25ZM547.587 35.625c34.422 0 62.327-11.753 62.327-26.25s-27.905-26.25-62.327-26.25S485.26-5.122 485.26 9.375s27.905 26.25 62.327 26.25Z"/><path fill="#415AFF" fill-rule="evenodd" d="M25.228-.23s21.002 23.144 77.569 9.165c56.566-13.98 56.566-20.696 56.566-20.696L25.228-.23ZM530.034-2.604S519.097 24.8 451.88 8.093c-67.218-16.708-56.568-20.697-56.568-20.697l134.722 10Z" clip-rule="evenodd"/></g></g><defs><clipPath id="a"><path fill="#fff" d="M0 0h1440v5H0z"/></clipPath></defs></svg>